<?xml version="1.0" standalone="no"?><!DOCTYPE svg PUBLIC "-//W3C//DTD SVG 1.1//EN" "http://www.w3.org/Graphics/SVG/1.1/DTD/svg11.dtd"><svg t="1660614911387" class="icon" viewBox="0 0 1024 1024" version="1.1" xmlns="http://www.w3.org/2000/svg" p-id="2389" width="128" height="128" xmlns:xlink="http://www.w3.org/1999/xlink"><defs><style type="text/css"></style></defs><path d="M1007.964 350.1l-30.122-150.678c-0.032-0.032-0.032-0.062-0.062-0.124v-0.032c-0.782-4-2.75-7.812-5.812-10.906-8.344-8.31-21.876-8.31-30.188 0a21.212 21.212 0 0 0-5.81 19.282l25.06 125.304h-94.682a21.272 21.272 0 0 0-15.06 6.25L579.774 610.708l30.154 30.188 265.294-265.266h111.806c5.468 0 10.938-2.094 15.092-6.25a21.48 21.48 0 0 0 5.844-19.28z" fill="#CCD1D9" p-id="2390"></path><path d="M398.738 369.378L34.384 733.73c-24.996 24.968-24.996 65.496 0 90.496 25 24.998 65.528 24.998 90.528 0l364.32-364.352-90.494-90.496z" fill="#5D9CEC" p-id="2391"></path><path d="M736.732 152.082l-30.154-30.186-277.654 277.64 30.154 30.182z" fill="#CCD1D9" p-id="2392"></path><path d="M579.774 550.398L215.406 914.72c-24.966 24.998-24.966 65.528 0 90.526 24.998 24.966 65.526 24.966 90.526 0l364.338-364.352-90.496-90.496z" fill="#46CEAD" p-id="2393"></path><path d="M730.61 234.7c-28.5 0-55.28-11.092-75.434-31.246-41.56-41.592-41.56-109.244 0-150.834 20.154-20.156 46.934-31.248 75.434-31.248 28.496 0 55.278 11.092 75.432 31.248 20.124 20.154 31.248 46.934 31.248 75.4 0 28.498-11.124 55.28-31.248 75.434-20.156 20.154-46.936 31.246-75.432 31.246z" fill="#E6E9ED" p-id="2394"></path><path d="M821.102 37.526C796.104 12.528 763.356 0.028 730.61 0.028c-32.75 0-65.496 12.5-90.496 37.498-49.996 49.998-49.996 131.024 0 181.02 25 24.998 57.746 37.466 90.496 37.466 32.746 0 65.494-12.5 90.492-37.466 49.998-49.998 49.998-131.022 0-181.02zM790.95 188.36c-16.124 16.124-37.532 25-60.34 25-22.812 0-44.216-8.876-60.34-25-33.282-33.246-33.282-87.4 0-120.648 16.124-16.124 37.528-24.998 60.34-24.998 22.808 0 44.214 8.876 60.34 24.998 16.092 16.094 24.996 37.53 24.996 60.308 0 22.812-8.904 44.248-24.996 60.34z" fill="#CCD1D9" p-id="2395"></path><path d="M308.244 459.876l30.186-30.158 90.494 90.496-30.186 30.184z" fill="#4A89DC" p-id="2396"></path><path d="M489.232 640.894l30.186-30.186 90.51 90.526-30.154 30.154z" fill="#35BB9B" p-id="2397"></path></svg>